<mxfile host="app.diagrams.net" modified="2022-09-04T07:36:25.646Z" agent="5.0 (Macintosh; Intel Mac OS X 10_15_7) AppleWebKit/537.36 (KHTML, like Gecko) Chrome/104.0.0.0 Safari/537.36" etag="X46BeHxHIvuZwjBgbLaQ" version="20.2.3" type="github">
  <diagram id="NoW-SyKpE0SGP1FMZ9Sw" name="第 1 页">
    <mxGraphModel dx="4052" dy="1188" grid="1" gridSize="10" guides="1" tooltips="1" connect="1" arrows="1" fold="1" page="0" pageScale="1" pageWidth="827" pageHeight="1169" background="none" math="0" shadow="0">
      <root>
        <mxCell id="0" />
        <mxCell id="1" parent="0" />
        <mxCell id="K0vF9ITfE5kKBza87MtR-1" value="工作介绍" style="text;html=1;strokeColor=none;fillColor=none;align=center;verticalAlign=middle;whiteSpace=wrap;rounded=0;fontSize=24;" vertex="1" parent="1">
          <mxGeometry x="40" y="560" width="160" height="40" as="geometry" />
        </mxCell>
        <mxCell id="K0vF9ITfE5kKBza87MtR-26" value="" style="line;strokeWidth=10;direction=south;html=1;fillColor=none;fontSize=13;fontColor=#000000;align=center;strokeColor=#AE4132;" vertex="1" parent="1">
          <mxGeometry x="235" y="640" width="10" height="840" as="geometry" />
        </mxCell>
        <mxCell id="K0vF9ITfE5kKBza87MtR-27" value="" style="rounded=1;whiteSpace=wrap;html=1;strokeColor=none;strokeWidth=1;fillColor=#F2931E;fontSize=13;fontColor=#FFFFFF;align=center;gradientColor=none;gradientDirection=east;verticalAlign=top;shadow=1;" vertex="1" parent="1">
          <mxGeometry x="40" y="665" width="220" height="85" as="geometry" />
        </mxCell>
        <mxCell id="K0vF9ITfE5kKBza87MtR-28" value="1" style="text;html=1;strokeColor=none;fillColor=none;align=center;verticalAlign=middle;whiteSpace=wrap;fontSize=30;fontColor=#FFFFFF;" vertex="1" parent="1">
          <mxGeometry x="50" y="698" width="40" height="20" as="geometry" />
        </mxCell>
        <mxCell id="K0vF9ITfE5kKBza87MtR-29" value="" style="rounded=1;whiteSpace=wrap;html=1;strokeColor=none;strokeWidth=1;fillColor=#10739E;fontSize=13;fontColor=#FFFFFF;align=center;gradientColor=none;gradientDirection=east;verticalAlign=top;shadow=1;fillStyle=auto;" vertex="1" parent="1">
          <mxGeometry x="210" y="780" width="220" height="85" as="geometry" />
        </mxCell>
        <mxCell id="K0vF9ITfE5kKBza87MtR-30" value="2" style="text;html=1;strokeColor=none;fillColor=none;align=center;verticalAlign=middle;whiteSpace=wrap;fontSize=30;fontColor=#FFFFFF;" vertex="1" parent="1">
          <mxGeometry x="220" y="813" width="40" height="20" as="geometry" />
        </mxCell>
        <mxCell id="K0vF9ITfE5kKBza87MtR-31" value="" style="rounded=1;whiteSpace=wrap;html=1;strokeColor=none;strokeWidth=1;fillColor=#F2931E;fontSize=13;fontColor=#FFFFFF;align=center;gradientColor=none;gradientDirection=east;verticalAlign=top;shadow=1;" vertex="1" parent="1">
          <mxGeometry x="40" y="890" width="220" height="85" as="geometry" />
        </mxCell>
        <mxCell id="K0vF9ITfE5kKBza87MtR-32" value="3" style="text;html=1;strokeColor=none;fillColor=none;align=center;verticalAlign=middle;whiteSpace=wrap;fontSize=30;fontColor=#FFFFFF;" vertex="1" parent="1">
          <mxGeometry x="50" y="923" width="40" height="20" as="geometry" />
        </mxCell>
        <mxCell id="K0vF9ITfE5kKBza87MtR-33" value="" style="rounded=1;whiteSpace=wrap;html=1;strokeColor=none;strokeWidth=1;fillColor=#10739E;fontSize=13;fontColor=#FFFFFF;align=center;gradientColor=none;gradientDirection=east;verticalAlign=top;shadow=1;" vertex="1" parent="1">
          <mxGeometry x="210" y="1005" width="220" height="85" as="geometry" />
        </mxCell>
        <mxCell id="K0vF9ITfE5kKBza87MtR-34" value="4" style="text;html=1;strokeColor=none;fillColor=none;align=center;verticalAlign=middle;whiteSpace=wrap;fontSize=30;fontColor=#FFFFFF;" vertex="1" parent="1">
          <mxGeometry x="220" y="1038" width="40" height="20" as="geometry" />
        </mxCell>
        <mxCell id="K0vF9ITfE5kKBza87MtR-35" value="" style="rounded=1;whiteSpace=wrap;html=1;strokeColor=none;strokeWidth=1;fillColor=#F2931E;fontSize=13;fontColor=#FFFFFF;align=center;gradientColor=none;gradientDirection=east;verticalAlign=top;shadow=1;" vertex="1" parent="1">
          <mxGeometry x="40" y="1120" width="220" height="85" as="geometry" />
        </mxCell>
        <mxCell id="K0vF9ITfE5kKBza87MtR-36" value="5" style="text;html=1;strokeColor=none;fillColor=none;align=center;verticalAlign=middle;whiteSpace=wrap;fontSize=30;fontColor=#FFFFFF;" vertex="1" parent="1">
          <mxGeometry x="50" y="1153" width="40" height="20" as="geometry" />
        </mxCell>
        <mxCell id="K0vF9ITfE5kKBza87MtR-37" value="" style="rounded=1;whiteSpace=wrap;html=1;strokeColor=none;strokeWidth=1;fillColor=#10739E;fontSize=13;fontColor=#FFFFFF;align=center;gradientColor=none;gradientDirection=east;verticalAlign=top;shadow=1;" vertex="1" parent="1">
          <mxGeometry x="210" y="1235" width="220" height="85" as="geometry" />
        </mxCell>
        <mxCell id="K0vF9ITfE5kKBza87MtR-38" value="6" style="text;html=1;strokeColor=none;fillColor=none;align=center;verticalAlign=middle;whiteSpace=wrap;fontSize=30;fontColor=#FFFFFF;" vertex="1" parent="1">
          <mxGeometry x="220" y="1268" width="40" height="20" as="geometry" />
        </mxCell>
        <mxCell id="K0vF9ITfE5kKBza87MtR-40" value="7" style="text;html=1;strokeColor=none;fillColor=none;align=center;verticalAlign=middle;whiteSpace=wrap;fontSize=30;fontColor=#FFFFFF;" vertex="1" parent="1">
          <mxGeometry x="50" y="1393" width="40" height="20" as="geometry" />
        </mxCell>
        <mxCell id="K0vF9ITfE5kKBza87MtR-43" value="&lt;h1&gt;加入58&lt;/h1&gt;&lt;div&gt;2021.05&lt;/div&gt;" style="text;html=1;spacing=5;spacingTop=-20;whiteSpace=wrap;overflow=hidden;strokeColor=none;strokeWidth=4;fillColor=none;gradientColor=#007FFF;fontSize=9;fontColor=#FFFFFF;align=center;" vertex="1" parent="1">
          <mxGeometry x="90" y="669" width="160" height="77" as="geometry" />
        </mxCell>
        <mxCell id="K0vF9ITfE5kKBza87MtR-44" value="&lt;h1&gt;魔招系统一期&lt;/h1&gt;&lt;div&gt;2021.07&lt;/div&gt;" style="text;html=1;spacing=5;spacingTop=-20;whiteSpace=wrap;overflow=hidden;strokeColor=none;strokeWidth=4;fillColor=none;gradientColor=#007FFF;fontSize=9;fontColor=#FFFFFF;align=center;" vertex="1" parent="1">
          <mxGeometry x="270" y="784" width="160" height="77" as="geometry" />
        </mxCell>
        <mxCell id="K0vF9ITfE5kKBza87MtR-45" value="&lt;h1&gt;流量侧打通&lt;/h1&gt;&lt;div&gt;2021.10&lt;/div&gt;" style="text;html=1;spacing=5;spacingTop=-20;whiteSpace=wrap;overflow=hidden;strokeColor=none;strokeWidth=4;fillColor=none;gradientColor=#007FFF;fontSize=9;fontColor=#FFFFFF;align=center;" vertex="1" parent="1">
          <mxGeometry x="90" y="894" width="160" height="77" as="geometry" />
        </mxCell>
        <mxCell id="K0vF9ITfE5kKBza87MtR-46" value="&lt;h1&gt;魔销系统一期&lt;/h1&gt;&lt;div&gt;2021.12&lt;/div&gt;" style="text;html=1;spacing=5;spacingTop=-20;whiteSpace=wrap;overflow=hidden;strokeColor=none;strokeWidth=4;fillColor=none;gradientColor=#007FFF;fontSize=9;fontColor=#FFFFFF;align=center;" vertex="1" parent="1">
          <mxGeometry x="260" y="1009" width="160" height="77" as="geometry" />
        </mxCell>
        <mxCell id="K0vF9ITfE5kKBza87MtR-47" value="&lt;h1&gt;报价二期&lt;/h1&gt;&lt;h1&gt;&lt;div style=&quot;font-size: 9px; font-weight: 400;&quot;&gt;2022.03&lt;/div&gt;&lt;/h1&gt;" style="text;html=1;spacing=5;spacingTop=-20;whiteSpace=wrap;overflow=hidden;strokeColor=none;strokeWidth=4;fillColor=none;gradientColor=#007FFF;fontSize=9;fontColor=#FFFFFF;align=center;" vertex="1" parent="1">
          <mxGeometry x="90" y="1124" width="160" height="77" as="geometry" />
        </mxCell>
        <mxCell id="K0vF9ITfE5kKBza87MtR-48" value="&lt;h1&gt;魔销系统二期&lt;/h1&gt;&lt;div&gt;2022.06&lt;/div&gt;" style="text;html=1;spacing=5;spacingTop=-20;whiteSpace=wrap;overflow=hidden;strokeColor=none;strokeWidth=4;fillColor=none;gradientColor=#007FFF;fontSize=9;fontColor=#FFFFFF;align=center;" vertex="1" parent="1">
          <mxGeometry x="260" y="1239" width="160" height="77" as="geometry" />
        </mxCell>
        <mxCell id="K0vF9ITfE5kKBza87MtR-53" value="" style="rounded=1;whiteSpace=wrap;html=1;strokeColor=none;strokeWidth=1;fillColor=#F2931E;fontSize=13;fontColor=#FFFFFF;align=center;gradientColor=none;gradientDirection=east;verticalAlign=top;shadow=1;" vertex="1" parent="1">
          <mxGeometry x="40" y="1350" width="220" height="85" as="geometry" />
        </mxCell>
        <mxCell id="K0vF9ITfE5kKBza87MtR-54" value="7" style="text;html=1;strokeColor=none;fillColor=none;align=center;verticalAlign=middle;whiteSpace=wrap;fontSize=30;fontColor=#FFFFFF;" vertex="1" parent="1">
          <mxGeometry x="50" y="1383" width="40" height="20" as="geometry" />
        </mxCell>
        <mxCell id="K0vF9ITfE5kKBza87MtR-55" value="&lt;h1&gt;邀约管理优化&lt;/h1&gt;&lt;h1&gt;&lt;div style=&quot;font-size: 9px; font-weight: 400;&quot;&gt;2022.09&lt;/div&gt;&lt;/h1&gt;" style="text;html=1;spacing=5;spacingTop=-20;whiteSpace=wrap;overflow=hidden;strokeColor=none;strokeWidth=4;fillColor=none;gradientColor=#007FFF;fontSize=9;fontColor=#FFFFFF;align=center;" vertex="1" parent="1">
          <mxGeometry x="90" y="1354" width="160" height="77" as="geometry" />
        </mxCell>
        <mxCell id="K0vF9ITfE5kKBza87MtR-56" value="" style="line;strokeWidth=2;html=1;fillColor=none;fontSize=28;fontColor=#004D99;strokeColor=#004D99;" vertex="1" parent="1">
          <mxGeometry x="-1070" y="940" width="1000" height="10" as="geometry" />
        </mxCell>
        <mxCell id="K0vF9ITfE5kKBza87MtR-57" value="Stage 1" style="shape=offPageConnector;whiteSpace=wrap;html=1;fillColor=#0075E8;fontSize=15;fontColor=#FFFFFF;size=0.5093750000000015;verticalAlign=top;strokeColor=none;" vertex="1" parent="1">
          <mxGeometry x="-990" y="880" width="160" height="40" as="geometry" />
        </mxCell>
        <mxCell id="K0vF9ITfE5kKBza87MtR-58" value="&lt;span&gt;Stage 3&lt;/span&gt;" style="shape=offPageConnector;whiteSpace=wrap;html=1;fillColor=#0075E8;fontSize=15;fontColor=#FFFFFF;size=0.5093750000000015;verticalAlign=top;strokeColor=none;" vertex="1" parent="1">
          <mxGeometry x="-537" y="880" width="160" height="40" as="geometry" />
        </mxCell>
        <mxCell id="K0vF9ITfE5kKBza87MtR-59" value="&lt;span&gt;Stage 2&lt;/span&gt;" style="shape=offPageConnector;whiteSpace=wrap;html=1;fillColor=#0075E8;fontSize=15;fontColor=#FFFFFF;size=0.4178571428571445;flipV=1;verticalAlign=bottom;strokeColor=none;spacingBottom=4;" vertex="1" parent="1">
          <mxGeometry x="-763" y="965" width="160" height="35" as="geometry" />
        </mxCell>
        <mxCell id="K0vF9ITfE5kKBza87MtR-60" value="&lt;span&gt;Stage 4&lt;/span&gt;" style="shape=offPageConnector;whiteSpace=wrap;html=1;fillColor=#0075E8;fontSize=15;fontColor=#FFFFFF;size=0.4178571428571445;flipV=1;verticalAlign=bottom;strokeColor=none;spacingBottom=4;" vertex="1" parent="1">
          <mxGeometry x="-310" y="965" width="160" height="35" as="geometry" />
        </mxCell>
        <mxCell id="K0vF9ITfE5kKBza87MtR-61" value="" style="ellipse;whiteSpace=wrap;html=1;fillColor=#61BAFF;fontSize=28;fontColor=#004D99;strokeWidth=3;strokeColor=#004D99;" vertex="1" parent="1">
          <mxGeometry x="-920" y="935" width="20" height="20" as="geometry" />
        </mxCell>
        <mxCell id="K0vF9ITfE5kKBza87MtR-62" value="" style="ellipse;whiteSpace=wrap;html=1;fillColor=#61BAFF;fontSize=28;fontColor=#004D99;strokeWidth=3;strokeColor=#004D99;" vertex="1" parent="1">
          <mxGeometry x="-693" y="935" width="20" height="20" as="geometry" />
        </mxCell>
        <mxCell id="K0vF9ITfE5kKBza87MtR-63" value="" style="ellipse;whiteSpace=wrap;html=1;fillColor=#61BAFF;fontSize=28;fontColor=#004D99;strokeWidth=3;strokeColor=#004D99;" vertex="1" parent="1">
          <mxGeometry x="-467" y="935" width="20" height="20" as="geometry" />
        </mxCell>
        <mxCell id="K0vF9ITfE5kKBza87MtR-64" value="" style="ellipse;whiteSpace=wrap;html=1;fillColor=#61BAFF;fontSize=28;fontColor=#004D99;strokeWidth=3;strokeColor=#004D99;" vertex="1" parent="1">
          <mxGeometry x="-240" y="935" width="20" height="20" as="geometry" />
        </mxCell>
        <mxCell id="K0vF9ITfE5kKBza87MtR-65" value="&lt;h1&gt;工作总结&lt;/h1&gt;&lt;p&gt;&lt;br&gt;&lt;/p&gt;" style="text;html=1;spacing=5;spacingTop=-20;whiteSpace=wrap;overflow=hidden;strokeColor=none;strokeWidth=3;fillColor=#E6E6E6;fontSize=13;fontColor=#000000;align=center;rounded=1;" vertex="1" parent="1">
          <mxGeometry x="-1017" y="970" width="215" height="48" as="geometry" />
        </mxCell>
        <mxCell id="K0vF9ITfE5kKBza87MtR-66" value="&lt;h1&gt;项目总览&lt;/h1&gt;&lt;p&gt;&lt;br&gt;&lt;/p&gt;" style="text;html=1;spacing=5;spacingTop=-20;whiteSpace=wrap;overflow=hidden;strokeColor=none;strokeWidth=3;fillColor=#E6E6E6;fontSize=13;fontColor=#000000;align=center;rounded=1;" vertex="1" parent="1">
          <mxGeometry x="-791" y="861" width="215" height="49" as="geometry" />
        </mxCell>
        <mxCell id="K0vF9ITfE5kKBza87MtR-67" value="&lt;h1&gt;重点项目&lt;/h1&gt;" style="text;html=1;spacing=5;spacingTop=-20;whiteSpace=wrap;overflow=hidden;strokeColor=none;strokeWidth=3;fillColor=#E6E6E6;fontSize=13;fontColor=#000000;align=center;rounded=1;" vertex="1" parent="1">
          <mxGeometry x="-565" y="970" width="215" height="50" as="geometry" />
        </mxCell>
        <mxCell id="K0vF9ITfE5kKBza87MtR-68" value="&lt;h1&gt;未来规划&lt;/h1&gt;" style="text;html=1;spacing=5;spacingTop=-20;whiteSpace=wrap;overflow=hidden;strokeColor=none;strokeWidth=3;fillColor=#E6E6E6;fontSize=13;fontColor=#000000;align=center;rounded=1;" vertex="1" parent="1">
          <mxGeometry x="-337" y="862" width="215" height="48" as="geometry" />
        </mxCell>
        <mxCell id="K0vF9ITfE5kKBza87MtR-69" value="开篇" style="text;html=1;strokeColor=none;fillColor=none;align=center;verticalAlign=middle;whiteSpace=wrap;rounded=0;fontSize=24;" vertex="1" parent="1">
          <mxGeometry x="-1040" y="600" width="160" height="40" as="geometry" />
        </mxCell>
      </root>
    </mxGraphModel>
  </diagram>
</mxfile>
